<svg width="55" height="55" viewBox="0 0 55 55" fill="none" xmlns="http://www.w3.org/2000/svg">
<path d="M0 27.5C0 12.3122 12.325 0 27.5 0C42.675 0 55 12.3122 55 27.5C55 42.6878 42.675 55 27.5 55C12.325 55 0 42.6878 0 27.5Z" fill="#8C8E8D"/>
<path d="M32.1607 17.2683C31.814 16.9158 31.3596 16.7392 30.9052 16.7392C30.4507 16.7392 29.9963 16.9158 29.6496 17.2683L20.4477 26.6226C19.7542 27.3276 19.7542 28.4705 20.4477 29.1749L29.6501 38.5298C30.3431 39.2342 31.4672 39.2342 32.1607 38.5292C32.5075 38.1768 32.6812 37.7148 32.6812 37.2528C32.6812 36.7909 32.5075 36.3289 32.1613 35.977L24.2139 27.8985L32.1607 19.8199C32.8537 19.1155 32.8537 17.9727 32.1607 17.2683Z" fill="white"/>
</svg>
